<svg id="Layer_1" data-name="Layer 1" xmlns="http://www.w3.org/2000/svg" viewBox="0 0 650.912 84.196"><defs><style>.cls-1{fill:#e8b909;}.cls-2{fill:#007638;}.cls-3{fill:#0061af;}.cls-4{fill:#f37021;}</style></defs><title>Logo Banca Intesa</title><path class="cls-1" d="M75.3,23.77v-.006l-.037-.014a2.146,2.146,0,0,0-1.8-.255,89.568,89.568,0,0,0-9.864-.244h-.227c-1.687.022-3.431.042-5.175.011l-14.088-.283c-3.3-.093-6.924-.064-10.472.062-2.618.028-5.18.09-7.782.171-2.7.07-9.174.093-13.031.1-2.069.005-3.14.011-3.282.011a1.354,1.354,0,0,0-1.015,1.18.631.631,0,0,0,.656.659c.356.039,2.694.051,6.935.039l4.336-.019c1.166-.009,1.7.019,1.945-.011l.028-.009a94.178,94.178,0,0,1,9.488-.28h.241c2,.017,4.073.031,6.159-.056a3.047,3.047,0,0,0,1.329-.084l.067-.008c.2-.039.4-.073.6-.1a5.272,5.272,0,0,0,1.587.115,6.723,6.723,0,0,1,1.637.1v.017l.084-.005v-.014a2.4,2.4,0,0,1,1.3.014.775.775,0,0,0,.084.014,3.742,3.742,0,0,0,.592.082,136.256,136.256,0,0,1,14.032.459l2.632.278h.031a43.028,43.028,0,0,1,7.083.123l.059.006c1.751.123,3.408.25,5.057.21l.011.025.1-.039v-.02l.869-.695h.009l.042-.037-.011-.011a1.224,1.224,0,0,0-.2-1.5"/><path class="cls-2" d="M51.98,53.7l.073-.036,0-.18L51.991,48v-.031a25.737,25.737,0,0,1-.145-2.7,27.635,27.635,0,0,0-.185-3.2,28.749,28.749,0,0,0-.589-4.432l-.185-1-.017-.092-.07-.07a1.616,1.616,0,0,1-.375-.821,2.778,2.778,0,0,0-.314-.8,10.851,10.851,0,0,0-1.466-1.9l-.028-.031a1.708,1.708,0,0,0-.4-.351c-.076-.05-.154-.1-.23-.16l-.118-.106-.073.014-.093-.076a4.263,4.263,0,0,0-1.4-.681h-.014a.727.727,0,0,0-.614-.238v-.14l-.258-.034-1.219-.185-.171-.025-.112.143c-.053.067-.064.076-.32-.022a1.761,1.761,0,0,0-.384-.1l-.146-.011-.07.067a1.411,1.411,0,0,0-.135-.087l-.513-.148-.034.235a1.041,1.041,0,0,0-.583.135H40.179l.081.286-.011.014a.805.805,0,0,0-.721.227c-.022.025-.059.042-.067.061a1.175,1.175,0,0,0-.527.233.3.3,0,0,1-.174.09l-.126.008-.084.092a2.2,2.2,0,0,1-.656.378l-.406.185.084.087a.582.582,0,0,0-.193.135h-.393v.311a.1.1,0,0,0-.042-.008l-.229-.1c-.017-.008-.157.19-.157.19a10.563,10.563,0,0,1-.9,1.029,11.354,11.354,0,0,0-1.1,1.306l-.087.129.056.149a.565.565,0,0,0-.294.381,1.019,1.019,0,0,0-.21.536A.44.44,0,0,1,34,37a1.02,1.02,0,0,0-.224.543.487.487,0,0,1-.079.244l-.2.244.087.064a1.136,1.136,0,0,0-.056.4.515.515,0,0,1-.011.118l-.126.087.031.2a3.914,3.914,0,0,1-.053,1.113,5.107,5.107,0,0,0-.053,1.152.964.964,0,0,0-.09.67,1.542,1.542,0,0,1,.022.176l-.2.148.143.23a1.039,1.039,0,0,1-.067.74,1.491,1.491,0,0,0-.07.844.226.226,0,0,0-.067.075.323.323,0,0,0-.053.228.733.733,0,0,1-.034.3l-.145.3-.02.115.258.185a1.63,1.63,0,0,0,.011.485c.042.2.05.277-.017.361l-.16.3.16.186v.053a.659.659,0,0,0,.151.553.5.5,0,0,0,.008.095l-.294.07.2.424c-.006.027-.017.069-.028.109a.736.736,0,0,0,.039.563,1,1,0,0,0,.005.639.949.949,0,0,1,.031.143.827.827,0,0,0-.065.9.754.754,0,0,0-.075.583l-.376.126.387.406a.38.38,0,0,0,.04.294.446.446,0,0,0,.16.135l-.109.042a.036.036,0,0,0,.017.031h-.009l.143.364-.011.031a.866.866,0,0,0,.121.574.308.308,0,0,0-.064.168l-.157.16.157.207c.109.166.073.384-.011.721a1.416,1.416,0,0,0,0,1l-.21.21.267.185c-.008.023-.017.031-.017.042a.589.589,0,0,0-.039.625l-.014-.027a1.248,1.248,0,0,1,0,.544,1.872,1.872,0,0,0,.084,1.039l-.048.379.011-.042a.451.451,0,0,0,.034.353l-.123.056.09.261a3.216,3.216,0,0,1,.087.95,2.48,2.48,0,0,0,.605,1.981l.129.126.166-.053a.771.771,0,0,0,.482-.813.613.613,0,0,1,.008-.137l.011-.07-.019-.065a5.818,5.818,0,0,1-.037-2.1c.017-.19.037-.367.045-.532l.011-.084-.039-.082a1.288,1.288,0,0,1-.061-.768,1.844,1.844,0,0,0-.028-.824,34.065,34.065,0,0,0-.014-4.145c-.017-.563-.044-1.107-.044-1.595l-.011-.02v-.011a13.644,13.644,0,0,1-.028-1.976,17.16,17.16,0,0,0-.025-1.752,7.542,7.542,0,0,0,.12-1.85c0-.289-.011-.572,0-.877l.005-.085-.02-.027a.465.465,0,0,0,.092-.511,2.89,2.89,0,0,0,.087-.658,1.9,1.9,0,0,1,.048-.449l.014-.079-.02-.081a.865.865,0,0,1,.031-.449,1.105,1.105,0,0,0,.017-.675,4.815,4.815,0,0,0,.339-1.651l.02-.2a.429.429,0,0,0-.121-.348v-.017a1.329,1.329,0,0,1,.289-.72,2.3,2.3,0,0,0,.44-1.031l.005-.082-.005-.008c.02-.022.053-.045.07-.067a.594.594,0,0,0,.275-.459.713.713,0,0,0-.014-.121,3,3,0,0,0,.454-.614,1.055,1.055,0,0,1,.642-.592l.168-.042L37.5,34.7c.045-.185.207-.3.471-.462a1.847,1.847,0,0,0,.574-.468.512.512,0,0,0,.438-.121,1.669,1.669,0,0,0,.636-.359c.28-.224.378-.275.563-.188l.19.087.124-.123c.008,0,.022-.009.031-.009a.5.5,0,0,0,.328-.21,1.594,1.594,0,0,0,.219-.059c.151-.053.2-.062.252-.034a.366.366,0,0,0,.286.045l.014.017.216-.025.294-.037a3.725,3.725,0,0,1,2.333.16l.246.126.148-.213a.779.779,0,0,1,.09.1,1.039,1.039,0,0,0,.933.459,1.626,1.626,0,0,0,.3.21c.042.025.089.056.126.084v.006l.061.087a.967.967,0,0,0,.673.283,3.821,3.821,0,0,1,1.04,1.6v.3h.232v.025a2.628,2.628,0,0,0,.51,1.227.818.818,0,0,0,.025.555c.008.031.02.073.028.112L48.8,38.1l.2.21.039.022a1.124,1.124,0,0,0,.157.544.434.434,0,0,1,.053.115l-.053.118a.688.688,0,0,0,.272.945.58.58,0,0,1,.065.056c-.14.1-.132.219-.157.4l.025.247.087.148h.014a.1.1,0,0,0,.011.031,1.023,1.023,0,0,0,.067.171l-.1.112-.07.269.157.219.109.053a.575.575,0,0,0,.09.311.3.3,0,0,0,.014.045l-.028.135a2.37,2.37,0,0,0,.079,1.667.135.135,0,0,0-.019.037.747.747,0,0,0-.09.571.556.556,0,0,1,.02.165l-.07.315c-.011.011.1.03.185.056a.247.247,0,0,0-.034.1l-.062.358h.121a1.663,1.663,0,0,0-.025.342.812.812,0,0,1-.079.407l-.028.036-.017.048a1.489,1.489,0,0,0,.137.894c.017.045.028.09.051.138a.331.331,0,0,0-.1.255c0,.031.017.051.017.076l-.061.056.053.193a.348.348,0,0,0,.174.2l-.05.023a1.561,1.561,0,0,0-.011.23V48.5l-.194.042.093.208a.461.461,0,0,0-.042.375l-.129.23a.286.286,0,0,0,.134.2.943.943,0,0,0,.365.9c.076.069.12.134.16.174h-.16l.12.4v.009a.549.549,0,0,0-.078.084l-.249.126.081.345-.025.073a.419.419,0,0,0,.036.375.32.32,0,0,1,.034.031.653.653,0,0,0-.208.426l-.025.283.232.042a.88.88,0,0,0-.056.177.926.926,0,0,1-.1.271h0c-.011.012-.011.02-.02.031l.407.227a2,2,0,0,0-.118.309c-.014.037-.031.093-.042.121h-.373l.02.4a1.027,1.027,0,0,1,.034.205,2.181,2.181,0,0,0,.042.246v.4a1.192,1.192,0,0,0,.017.221l-.048.02.031.219a1.621,1.621,0,0,1,0,.334c0,.061-.011.135-.011.2l-.28.148.342.376v.021a.754.754,0,0,0-.093.346H49.6l.41.5a.73.73,0,0,1,.089.241.039.039,0,0,1,.011.031.821.821,0,0,0-.21.532,1.134,1.134,0,0,1-.028.177l.011-.011.1.137a.619.619,0,0,0-.154.177.652.652,0,0,0-.039.294h-.4l.333.323-.311.117.261.205v.818a.356.356,0,0,0,.185.333.04.04,0,0,1,.025.012.673.673,0,0,0,.485.062v.345l.39-.123A1.506,1.506,0,0,1,51.5,61.2l.316.062.045-.322a22.589,22.589,0,0,0,.1-3.543,18.576,18.576,0,0,1,.081-3.2.551.551,0,0,0-.062-.493"/><path class="cls-3" d="M28.6,53.7l.07-.036v-.18L28.6,48v-.031c-.092-.821-.109-1.732-.134-2.7a25.225,25.225,0,0,0-.191-3.2,27.354,27.354,0,0,0-.583-4.432l-.187-1-.017-.092-.067-.07a1.61,1.61,0,0,1-.376-.821,2.778,2.778,0,0,0-.314-.8,10.591,10.591,0,0,0-1.469-1.9l-.023-.031a1.518,1.518,0,0,0-.417-.351c-.076-.05-.14-.1-.219-.16l-.121-.106-.067.014-.1-.076a4.176,4.176,0,0,0-1.4-.681H22.9a.72.72,0,0,0-.608-.238v-.14l-.263-.034-1.222-.185-.174-.025-.109.143c-.045.067-.061.076-.314-.022a1.847,1.847,0,0,0-.393-.1l-.134-.011-.076.067c-.037-.025-.084-.056-.135-.087l-.51-.148-.039.235a1.031,1.031,0,0,0-.58.135H16.791l.09.286-.017.014a.794.794,0,0,0-.718.227c-.02.025-.056.042-.07.061a1.176,1.176,0,0,0-.524.233.292.292,0,0,1-.171.09l-.134.008-.082.092a2.034,2.034,0,0,1-.65.378l-.406.185.092.087a.5.5,0,0,0-.2.135H13.6v.311a.1.1,0,0,0-.048-.008l-.221-.1c-.02-.008-.16.19-.16.19a10.411,10.411,0,0,1-.891,1.029,10.6,10.6,0,0,0-1.1,1.306l-.092.129.062.149a.539.539,0,0,0-.288.381.994.994,0,0,0-.219.536.44.44,0,0,1-.028.132,1.078,1.078,0,0,0-.227.543.515.515,0,0,1-.073.244l-.2.244.092.064a1.084,1.084,0,0,0-.073.4v.118l-.132.087.037.2A4,4,0,0,1,10,40.022a4.942,4.942,0,0,0-.064,1.152.925.925,0,0,0-.081.67,1.058,1.058,0,0,1,.02.176l-.2.148.135.23c.1.177.017.46-.059.74a1.377,1.377,0,0,0-.067.844.326.326,0,0,0-.129.3.814.814,0,0,1-.028.3l-.148.3L9.354,45l.263.185a1.467,1.467,0,0,0,.022.485c.02.2.034.277-.028.361l-.174.3.174.186a.256.256,0,0,1,0,.053.748.748,0,0,0,.143.553c.008.039.02.064.025.095l-.309.07.2.424a.514.514,0,0,1-.025.109.723.723,0,0,0,.042.563,1.115,1.115,0,0,0,0,.639.682.682,0,0,1,.031.143.831.831,0,0,0-.061.9.766.766,0,0,0-.073.583l-.375.126.381.406a.425.425,0,0,0,.047.294.322.322,0,0,0,.163.135l-.121.042c0,.012.009.019.009.031h0l.134.364v.031a.835.835,0,0,0,.118.574.391.391,0,0,0-.064.168l-.145.16.145.207c.118.166.076.384-.008.721a1.3,1.3,0,0,0,0,1l-.21.21.263.185a.048.048,0,0,1-.025.042.615.615,0,0,0-.028.625l-.02-.027a1.114,1.114,0,0,1,.011.544,1.8,1.8,0,0,0,.081,1.039l-.056.379.011-.042a.508.508,0,0,0,.034.353l-.115.056.081.261a3.1,3.1,0,0,1,.1.95,2.512,2.512,0,0,0,.594,1.981l.129.126.174-.053a.767.767,0,0,0,.474-.813.759.759,0,0,1,.011-.137l.011-.07-.022-.065a6.21,6.21,0,0,1-.034-2.1c.017-.19.034-.367.045-.532l.011-.084-.04-.082a1.23,1.23,0,0,1-.053-.768,1.9,1.9,0,0,0-.039-.824,37.246,37.246,0,0,0,0-4.145c-.031-.563-.051-1.107-.062-1.595v-.031a13.581,13.581,0,0,1-.033-1.976,14.593,14.593,0,0,0-.02-1.752,7.933,7.933,0,0,0,.115-1.85v-.962l-.011-.027a.483.483,0,0,0,.1-.511,3.031,3.031,0,0,0,.081-.658,1.9,1.9,0,0,1,.042-.449l.02-.079-.02-.081A.82.82,0,0,1,11.5,41.5a1.221,1.221,0,0,0,.011-.675,4.446,4.446,0,0,0,.342-1.651l.022-.2a.415.415,0,0,0-.126-.348v-.017a1.357,1.357,0,0,1,.291-.72,2.4,2.4,0,0,0,.44-1.031l0-.082,0-.008c.022-.022.05-.045.073-.067a.584.584,0,0,0,.272-.459.7.7,0,0,0-.017-.121,2.285,2.285,0,0,0,.454-.614c.18-.286.3-.494.639-.592l.171-.042.045-.177c.045-.185.21-.3.474-.462a1.913,1.913,0,0,0,.575-.468.511.511,0,0,0,.432-.121,1.674,1.674,0,0,0,.642-.359c.277-.224.375-.275.563-.188l.2.087.118-.123a.029.029,0,0,0,.017-.009.5.5,0,0,0,.336-.21,2.264,2.264,0,0,0,.23-.059c.145-.053.187-.062.238-.034a.361.361,0,0,0,.286.045l.011.017.227-.025.294-.037a3.7,3.7,0,0,1,2.324.16l.246.126.151-.213a1.205,1.205,0,0,0,.09.1,1.031,1.031,0,0,0,.931.459,1.709,1.709,0,0,0,.3.21c.044.025.089.056.129.084v.006l.062.087a.928.928,0,0,0,.667.283,3.821,3.821,0,0,1,1.04,1.6v.3h.232v.025a2.6,2.6,0,0,0,.513,1.227.8.8,0,0,0,.022.555c.008.031.02.073.034.112l-.084.219.2.21.045.022a1.086,1.086,0,0,0,.151.544,1.233,1.233,0,0,1,.053.115l-.045.118a.682.682,0,0,0,.263.945c.037.028.045.042.067.056-.134.1-.129.219-.157.4l.028.247.087.148h.011c0,.008.008.017.008.031a.641.641,0,0,0,.073.171l-.106.112-.07.269.154.219.115.053a.551.551,0,0,0,.087.311.058.058,0,0,0,.011.045l-.022.135a2.351,2.351,0,0,0,.079,1.667.245.245,0,0,1-.025.037.707.707,0,0,0-.084.571,1.192,1.192,0,0,1,.023.165L26.284,45a1.151,1.151,0,0,0,.191.056.559.559,0,0,0-.031.1l-.067.358h.132a1.49,1.49,0,0,0-.034.342.729.729,0,0,1-.076.407l-.022.036-.02.048a1.387,1.387,0,0,0,.132.894,1.162,1.162,0,0,1,.047.138.367.367,0,0,0-.092.255.172.172,0,0,0,.022.076l-.067.056.056.193a.31.31,0,0,0,.171.2l-.051.023a1.648,1.648,0,0,0-.011.23V48.5l-.2.042.1.208a.461.461,0,0,0-.048.375l-.124.23a.266.266,0,0,0,.135.2.924.924,0,0,0,.351.9,1.057,1.057,0,0,1,.168.174h-.154l.118.4,0,.009a.437.437,0,0,0-.079.084l-.252.126.087.345-.034.073a.406.406,0,0,0,.045.375.384.384,0,0,0,.034.031.572.572,0,0,0-.207.426l-.034.283.235.042a1.1,1.1,0,0,0-.05.177,1.015,1.015,0,0,1-.112.271h.006c-.009.012-.02.02-.028.031l.409.227a1.661,1.661,0,0,0-.109.309,1.037,1.037,0,0,1-.044.121H26.4l.014.4a.634.634,0,0,1,.042.205c.011.069.02.153.04.246v.4c0,.05.008.123.017.221l-.045.02.037.219a2.243,2.243,0,0,1,0,.334,1.553,1.553,0,0,0-.008.2l-.281.148.334.376c0,.011-.006.011-.006.011a.944.944,0,0,0-.081.356H26.22l.407.5a.621.621,0,0,1,.092.241.089.089,0,0,1,.011.031.867.867,0,0,0-.207.532c-.005.051-.014.148-.022.177v-.011l.109.137a.689.689,0,0,0-.165.177.614.614,0,0,0-.04.294h-.392l.333.323-.314.117.263.205v.818a.357.357,0,0,0,.185.333c.009,0,.02.012.02.012a.674.674,0,0,0,.487.062v.345l.4-.123a1.479,1.479,0,0,1,.737-.054l.314.062.044-.322a23.338,23.338,0,0,0,.1-3.543,18.383,18.383,0,0,1,.084-3.2A.542.542,0,0,0,28.6,53.7"/><path class="cls-4" d="M74.96,54.127l.07-.057v-.165l-.056-5.483V48.4l-.014-.014c-.092-.824-.12-1.732-.131-2.7a26.384,26.384,0,0,0-.2-3.209,27.8,27.8,0,0,0-.586-4.426l-.179-1-.022-.1-.062-.064a1.645,1.645,0,0,1-.373-.821,2.74,2.74,0,0,0-.319-.808,11.142,11.142,0,0,0-1.466-1.894l-.022-.034a1.446,1.446,0,0,0-.417-.351,1.3,1.3,0,0,1-.219-.168l-.121-.1-.073.014-.087-.067a3.957,3.957,0,0,0-1.407-.687h-.008a.763.763,0,0,0-.62-.247v-.14l-.249-.037-1.225-.176L67,31.349l-.118.14c-.042.065-.053.081-.309-.019a2.738,2.738,0,0,0-.392-.1l-.138-.009-.076.067a.566.566,0,0,0-.129-.081L65.32,31.2l-.036.23a1.267,1.267,0,0,0-.586.126h-.8l-.748,0,.09.291c0,.009-.009.009-.017.019a.771.771,0,0,0-.717.23.66.66,0,0,1-.076.048,1.17,1.17,0,0,0-.519.247.323.323,0,0,1-.171.081l-.134.011-.079.093a2.2,2.2,0,0,1-.65.381l-.42.179.1.084a1.009,1.009,0,0,0-.2.132h-.395v.322c-.014,0-.037-.011-.045-.011l-.219-.092c-.022-.014-.168.185-.168.185a9.4,9.4,0,0,1-.886,1.02,11.254,11.254,0,0,0-1.1,1.309l-.093.137.059.132a.636.636,0,0,0-.3.393.972.972,0,0,0-.2.527,1.146,1.146,0,0,1-.025.14,1.011,1.011,0,0,0-.229.538.513.513,0,0,1-.076.244l-.2.249.09.065a1,1,0,0,0-.064.4v.129l-.132.082.022.2a3.383,3.383,0,0,1-.048,1.116,5.184,5.184,0,0,0-.047,1.158.918.918,0,0,0-.09.659.711.711,0,0,1,.011.177l-.2.16.145.227a1.026,1.026,0,0,1-.056.734,1.479,1.479,0,0,0-.076.851.4.4,0,0,0-.062.073.315.315,0,0,0-.059.229.637.637,0,0,1-.033.283l-.138.306-.028.112.263.188a1.608,1.608,0,0,0,.011.482c.031.2.045.295-.017.361l-.16.295.16.2v.053a.669.669,0,0,0,.146.553c0,.03.008.062.008.095l-.294.084.2.415a.48.48,0,0,0-.022.1.8.8,0,0,0,.031.586,1.036,1.036,0,0,0,.008.625.443.443,0,0,1,.031.148.824.824,0,0,0-.062.9.789.789,0,0,0-.079.586l-.375.123.39.4a.336.336,0,0,0,.044.292.325.325,0,0,0,.157.145l-.115.03c0,.021.008.031.008.045h0l.14.354v.039a.848.848,0,0,0,.112.575.343.343,0,0,0-.065.168l-.148.145.148.219c.109.168.073.378-.017.712a1.4,1.4,0,0,0,.005,1.012l-.207.211.263.2c0,.012-.011.02-.022.034a.618.618,0,0,0-.039.628l-.011-.034a1.167,1.167,0,0,1,.011.53,1.867,1.867,0,0,0,.081,1.054l-.056.379.014-.051a.417.417,0,0,0,.039.361l-.121.057.081.261a3.294,3.294,0,0,1,.087.95,2.478,2.478,0,0,0,.6,1.976l.129.121.176-.042c.44-.135.465-.586.474-.824a.788.788,0,0,1,.02-.138v-.059l-.02-.067a5.7,5.7,0,0,1-.034-2.1c.014-.186.034-.364.053-.53v-.095l-.039-.07a1.315,1.315,0,0,1-.059-.768,1.816,1.816,0,0,0-.031-.836,34.112,34.112,0,0,0-.011-4.143c-.02-.566-.04-1.107-.051-1.6V50.7a14.4,14.4,0,0,1-.044-1.974,11.873,11.873,0,0,0-.014-1.754,7.253,7.253,0,0,0,.121-1.851c0-.271-.011-.561,0-.874v-.07l-.017-.034a.455.455,0,0,0,.1-.51,2.952,2.952,0,0,0,.084-.664,2.049,2.049,0,0,1,.042-.457l.011-.073-.022-.073a.959.959,0,0,1,.042-.446,1.289,1.289,0,0,0,.017-.678,4.837,4.837,0,0,0,.336-1.654l.023-.2a.478.478,0,0,0-.126-.351V39.03a1.4,1.4,0,0,1,.289-.723,2.358,2.358,0,0,0,.44-1.04l.008-.073-.005-.011c.022-.023.05-.042.073-.062a.624.624,0,0,0,.275-.468.46.46,0,0,0-.025-.121,2.477,2.477,0,0,0,.462-.605c.177-.289.3-.5.636-.591l.168-.056.047-.165c.045-.187.21-.291.471-.459a2.118,2.118,0,0,0,.58-.465.491.491,0,0,0,.429-.129,1.773,1.773,0,0,0,.642-.353c.28-.232.375-.283.563-.19l.19.087.123-.129H63.5a.541.541,0,0,0,.328-.208c.081-.022.166-.045.219-.064.157-.056.2-.062.249-.028a.413.413,0,0,0,.286.039l.011.02.227-.031.294-.042a3.733,3.733,0,0,1,2.324.163l.247.132.14-.222a.367.367,0,0,1,.093.1,1.086,1.086,0,0,0,.939.465,1.56,1.56,0,0,0,.3.21c.036.025.089.051.129.079V34.1l.062.081a.944.944,0,0,0,.67.278,3.876,3.876,0,0,1,1.037,1.612v.305h.224l.009.023a2.482,2.482,0,0,0,.516,1.22.837.837,0,0,0,.02.555c.014.037.022.082.034.118l-.076.222.2.21.056.023a1.03,1.03,0,0,0,.14.539.507.507,0,0,0,.059.12l-.05.107a.7.7,0,0,0,.269.956.53.53,0,0,0,.061.053c-.137.112-.129.222-.157.409l.02.227.1.154h.011c0,.011.008.022.008.031a.78.78,0,0,0,.073.185l-.1.092-.073.278.143.221.121.053a.727.727,0,0,0,.079.309c.008.014.02.022.02.045l-.02.134a2.332,2.332,0,0,0,.076,1.682c-.011,0-.014.015-.014.015a.716.716,0,0,0-.1.571.486.486,0,0,1,.011.174l-.073.306a.547.547,0,0,0,.193.062.817.817,0,0,0-.034.1l-.064.367h.126a1.993,1.993,0,0,0-.034.342.681.681,0,0,1-.073.4l-.02.045-.022.036a1.4,1.4,0,0,0,.132.9.6.6,0,0,0,.056.135.377.377,0,0,0-.1.264.189.189,0,0,0,.025.081l-.07.054.056.19a.357.357,0,0,0,.171.2l-.05.011a1.681,1.681,0,0,0-.011.238V48.9l-.2.057.1.2a.443.443,0,0,0-.05.367l-.129.241a.3.3,0,0,0,.14.2.9.9,0,0,0,.356.9,1.056,1.056,0,0,1,.163.176h-.154l.118.39v.009c-.031.033-.047.062-.076.1l-.247.114.076.345L73,52.076a.35.35,0,0,0,.042.364.5.5,0,0,0,.028.047.645.645,0,0,0-.2.415l-.034.292.238.03c-.025.062-.039.127-.056.177a.793.793,0,0,1-.1.272h0c-.009.022-.02.03-.02.056l.4.213a1.514,1.514,0,0,0-.109.306.363.363,0,0,1-.056.126h-.361l.014.4a.83.83,0,0,1,.036.21,1.687,1.687,0,0,0,.04.241v.393a1.878,1.878,0,0,0,.017.222l-.045.03.034.219a3.293,3.293,0,0,1,0,.334c-.005.05-.011.129-.011.2l-.277.147.336.367c0,.008,0,.02-.009.02a.929.929,0,0,0-.076.355h-.247l.4.5a.7.7,0,0,1,.09.232c0,.018.011.018.011.031a.913.913,0,0,0-.21.544.613.613,0,0,1-.022.165l.006-.014.1.14a.5.5,0,0,0-.154.2.472.472,0,0,0-.031.283h-.407l.328.319-.3.109.252.205v.827a.362.362,0,0,0,.188.336h.028a.57.57,0,0,0,.488.073v.33l.39-.111a1.343,1.343,0,0,1,.726-.054l.333.062.034-.322a22.341,22.341,0,0,0,.1-3.549,18.773,18.773,0,0,1,.087-3.2.55.55,0,0,0-.067-.487"/><path class="cls-4" d="M0,84.2H84.2V0H0Zm79.745-4.448H4.44V4.443h75.3Z"/><path class="cls-2" d="M609.272,47.745c-.311,0-.39-.232-.311-.544l7.162-19.15c.07-.309.235-.7.465-.7s.311.395.4.7l7,19.231c.084.23,0,.463-.381.463Zm15.8,3.893a.758.758,0,0,1,.782.541l6.229,16.5a1.274,1.274,0,0,1-.71,1.8c-.776.087-1.079.241-1.079.7,0,.555.928.555,2.332.628,6.221.154,11.905.154,14.705.154,2.885,0,3.58-.154,3.58-.782,0-.541-.39-.611-1-.611a17.657,17.657,0,0,1-3.274-.313c-1.634-.474-3.9-1.545-6.848-8.532-4.986-11.787-17.435-43.549-19.3-47.832-.776-1.794-1.25-2.489-1.951-2.489-.773,0-1.241.861-2.172,3.112L596.818,63.4c-1.562,3.882-3.033,6.536-6.615,7-.62.072-1.713.159-2.414.159-.622,0-.936.154-.936.611,0,.628.471.782,1.477.782,4.048,0,8.337-.228,9.184-.228,2.416,0,5.766.228,8.258.228.852,0,1.32-.154,1.32-.782,0-.457-.236-.611-1.175-.611h-1.158c-2.416,0-3.114-1.015-3.114-2.424a14.963,14.963,0,0,1,1.167-4.74l4.2-11.131c.154-.472.315-.628.7-.628Z"/><path class="cls-2" d="M580.036,36.039,577.6,34.394c-7.218-4.959-9.222-7.706-9.222-11.33,0-4.709,3.907-8.09,10.349-8.09,5.654,0,8.177,2.366,9.48,3.849a9,9,0,0,1,2.265,5.2c0,.936.249,1.41.863,1.41.7,0,.953-.631.953-2.366,0-6.122.356-8.4.356-9.427,0-.555-.437-.785-1.223-.942a46.185,46.185,0,0,0-11.571-1.334c-12.081,0-20.078,6.206-20.078,14.848,0,6.369,3.308,11.871,12.86,18.635l4.012,2.828c7.212,5.118,8.521,8.728,8.521,12.58,0,4.154-3.832,8.956-11.655,8.956-5.388,0-10.528-2.128-12.429-7.941a14.812,14.812,0,0,1-.791-4c0-.639-.084-1.34-.866-1.34-.451,0-.729.367-.874.95a7.629,7.629,0,0,0-.225,1.256c-.093.749-.364,2.587-.457,3.1-.547,3.2-1.488,4.854-3.521,5.785s-5.317.94-7.35.94c-7.975,0-13.766-1.172-13.926-6.557-.075-2.276,0-9.469,0-12.132V43.1c0-.471.076-.785.466-.785,1.878,0,13.015.076,14.5.233,2.89.314,3.988,1.491,4.381,3.046a20.716,20.716,0,0,1,.314,2.82.617.617,0,0,0,.7.7c.7,0,.7-.858.7-1.483,0-.544.159-3.675.322-5.242.229-4,.616-5.239.616-5.718s-.235-.617-.535-.617c-.4,0-.709.39-1.259,1.012-.7.785-1.881,1.023-3.753,1.171-1.8.154-14.186.154-15.9.154-.477,0-.553-.3-.553-.852V17.749c0-.547.16-.779.553-.779,1.556,0,13.166.157,14.494.311,3.9.468,4.686,1.41,5.239,2.814a8.421,8.421,0,0,1,.471,2.82c0,.695.157,1.093.709,1.093.535,0,.7-.476.776-.866.154-.931.309-4.378.387-5.163.241-3.588.634-4.527.634-5.079,0-.39-.084-.7-.468-.7a7.714,7.714,0,0,0-1.265.314,29.7,29.7,0,0,1-3.356.462c-1.488.082-20.439.082-22.937.082-1.1,0-2.892-.082-4.944-.154-1.6,0-3.42-.047-5.188-.067-.075-.393-.226-.572-.569-.572a33.426,33.426,0,0,1-7.438.777H483.848c-2.562,0-5.508-.154-7.744-.393a33.33,33.33,0,0,1-3.308-.639c-.43,0-.689.154-.908,1h-.766c-1.031,0-2.071.045-3.038.09-1.688.056-3.107.132-4.018.148-1.578-.028-4.689-.238-8.042-.238-1.042,0-1.8.084-1.8.7,0,.46.277.7,1.1.7a10.114,10.114,0,0,1,3.655.462c1.477.692,2.136,1.929,2.307,5.581l.241,31.481c-1.172-1.247-35.285-39.207-36.3-39.975A1.558,1.558,0,0,0,422.6,13.11l-.673,20.364-.939,26.918c-.075,6.708-1.4,8.045-3.186,9.121a7.845,7.845,0,0,1-3.274.776,25.454,25.454,0,0,1-4.88-.171,4.365,4.365,0,0,1-3.549-3.986c-.309-3.333-.309-9.449-.309-16.98V35.509c0-11.787,0-13.956.151-16.446.157-2.7.782-4.028,2.87-4.415a12.6,12.6,0,0,1,2.308-.232c.765,0,1.222-.154,1.222-.779,0-.457-.605-.617-1.608-.617-2.936,0-7.487.227-9.416.227-2.236,0-7.1-.227-10.023-.227-1.239,0-1.861.16-1.861.617,0,.625.471.779,1.244.779a11.03,11.03,0,0,1,2.775.308c1.69.387,2.464,1.707,2.615,4.339.157,2.489.157,4.659.157,16.446V49.152c0,7.531,0,13.647-.382,16.908-.232,2.245-.7,3.56-2.248,3.873a12.2,12.2,0,0,1-2.774.3c-.917,0-1.239.24-1.239.627,0,.541.552.782,1.553.782,3.086,0,7.947-.241,9.724-.241,2.083,0,13.7.233,14.069.233,3.991,0,8.044-.126,8.736-.126,1.461,0,4.527.23,9.531.23,1.076,0,1.766-.145,1.766-.77,0-.46-.46-.617-1.307-.617a11.888,11.888,0,0,1-4-.547c-1.536-.532-2.539-2.548-2.69-8.571l-.289-15.2-.238-15.142C427.678,32.353,458.5,66.06,462.842,70.7c.766.844,1.584,1.7,2.338,1.7.625,0,.9-.7.9-2.4l.757-48.785c.014-.608.036-1.166.057-1.685.24-2.932.9-4.019,2.253-4.653a7.536,7.536,0,0,1,2.618-.454c-.045,2.243,0,6.764,0,7.739,0,.858.16,1.236.7,1.236.462,0,.692-.306.854-.928a9.158,9.158,0,0,1,1.312-2.73c1.152-1.7,3.027-2.1,7.519-2.256l7.759-.311V49.113c0,7.161,0,13.312-.379,16.577-.24,2.268-1.157,3.98-2.7,4.294a35.584,35.584,0,0,1-4.347.306c-.939,0-1.239.238-1.239.634,0,.532.538.773,1.544.773,3.092,0,9.993-.241,11.765-.241,2.181,0,7.072.241,12.18.241.854,0,1.482-.241,1.482-.773,0-.4-.393-.634-1.244-.634a34.792,34.792,0,0,1-3.958-.306c-2.318-.313-2.786-2.026-3.017-4.219-.4-3.341-.4-9.491-.4-16.652V17.166l7.633.235c6.9.16,9.25,2.332,9.409,4.356l.07.866c.084,1.166.244,1.556.858,1.556.468,0,.613-.468.7-1.247,0-1.892-.022-6.68-.033-8.653a9.252,9.252,0,0,1,1.469.187c2.587.552,3.209,1.8,3.357,4.454.166,2.5.166,4.689.166,16.58V49.269c0,7.193,0,13.374-.4,16.662-.312,2.268-.7,3.988-2.268,4.291a12.146,12.146,0,0,1-2.817.325c-.937,0-1.25.227-1.25.625,0,.541.541.77,1.567.77,1.566,0,3.6-.069,5.393-.153,1.878,0,3.6-.076,4.46-.076,2.349,0,4.77.076,8.137.229,3.358.087,12.2.244,18.066.244,2.968,0,3.678,0,4.222-2.04h0a2.673,2.673,0,0,0,1.258.787,33.008,33.008,0,0,0,12.689,2.046,27.234,27.234,0,0,0,13.828-3.226c6.259-3.686,8.176-9.116,8.176-13.668,0-7.476-3.739-12.9-14.259-20.047"/><path class="cls-2" d="M293.459,73.345c4.85,0,10.6-.544,13.637-1.786a2.735,2.735,0,0,0,1.962-2.254,75.693,75.693,0,0,0,1.676-10.356c0-.628-.157-1.172-.689-1.172-.606,0-.754.313-.987,1.556a13.088,13.088,0,0,1-2.576,5.141c-3.027,3.579-7.12,4.364-13.858,4.364-10.159,0-23.86-9.191-23.86-27.714,0-7.551,1.435-14.946,6.965-20.165,3.336-3.111,7.655-4.827,14.24-4.827,6.966,0,12.88,2.1,15.38,4.827a11.211,11.211,0,0,1,2.949,7.159c0,1.085.16,1.713.76,1.713.684,0,.838-.628.911-1.789.148-1.556.076-5.838.224-8.4.157-2.736.384-3.672.384-4.286,0-.468-.306-.855-1.138-.942-2.268-.23-4.7-.931-7.571-1.317a72.745,72.745,0,0,0-10.988-.779c-11.285,0-18.483,3.111-23.941,8.252-7.269,6.848-8.858,16.036-8.858,21.337,0,7.549,1.968,16.263,9.393,22.957,6.887,6.142,15.607,8.479,25.984,8.479"/><path class="cls-2" d="M125.833,17.362c0-.872.151-1.177.712-1.34a12.465,12.465,0,0,1,2.581-.16c6.764,0,9.834,6.921,9.834,12.185,0,3.857-1.189,6.694-3.221,8.328-1.346,1.183-3.075,1.508-5.671,1.508a18.182,18.182,0,0,1-3.689-.241c-.314-.084-.546-.235-.546-.872Zm-9.443,31.916c0,7.226,0,13.46-.4,16.751-.322,2.287-.7,4-2.262,4.322a12.865,12.865,0,0,1-2.839.315c-.947,0-1.247.238-1.247.633,0,.547.544.785,1.567.785,3.147,0,8.1-.238,9.883-.238,2.388,0,9.53.468,11.409.468,14.469,0,21-8.717,21-17.135,0-9.188-7.876-14.786-14.307-17,4.316-3.439,8.017-7.285,8.017-13.738,0-4.165-2.506-11.8-16.76-11.8-2.663,0-5.727.227-9.581.227-1.564,0-6.515-.227-10.685-.227-1.18,0-1.73.154-1.73.715s.46.7,1.335.7a15.82,15.82,0,0,1,3.066.232c2.587.549,3.224,1.8,3.375,4.479.154,2.514.154,4.709.154,16.659Zm27.456,9.44c0,8.177-5.993,10.066-9.536,10.066a14.019,14.019,0,0,1-5.729-.953c-2.515-1.021-2.747-2.35-2.747-7.549V41.653c0-.387.151-.544.459-.544,1.186,0,1.974,0,3.381.076,3.069.146,4.877.7,6.531,1.9,5.974,4.156,7.642,10.758,7.642,15.638"/><path class="cls-2" d="M330.527,47.745c-.306,0-.379-.232-.306-.544l7.164-19.15c.076-.309.235-.7.466-.7s.31.395.39.7l7,19.231c.081.23,0,.463-.382.463Zm15.809,3.893a.753.753,0,0,1,.779.541l6.231,16.5a1.278,1.278,0,0,1-.712,1.8c-.773.087-1.079.241-1.079.7,0,.555.928.555,2.332.628,6.223.154,11.907.154,14.713.154,2.885,0,3.583-.154,3.583-.782,0-.541-.4-.611-1.013-.611a17.691,17.691,0,0,1-3.276-.313c-1.632-.474-3.888-1.545-6.845-8.532-4.987-11.787-17.433-43.549-19.3-47.832-.784-1.794-1.253-2.489-1.953-2.489-.776,0-1.245.861-2.173,3.112L318.084,63.4c-1.556,3.882-3.036,6.536-5.595,7a7,7,0,0,1-1.589.159c-.628,0-.934.154-.934.611,0,.628.462.782,1.48.782,4.042,0,6.478-.228,7.341-.228,2.408,0,5.752.228,8.247.228.856,0,1.323-.154,1.323-.782,0-.457-.238-.611-1.166-.611h-1.172c-2.414,0-3.111-1.015-3.111-2.424a14.9,14.9,0,0,1,1.169-4.74l4.2-11.131c.156-.472.316-.628.7-.628Z"/><path class="cls-2" d="M181.972,47.826H167.649c-.314,0-.4-.238-.314-.552L174.5,28.123c.081-.306.235-.7.462-.7s.314.395.4.7l7,19.235c.079.229,0,.468-.384.468m75.806-35.2c-.588,0-.754.008-1.332.023H256.3c-.18,0-.336,0-.482.008h-.07c-2.363.064-9.929-.023-13.284-.023-1.045,0-1.794.082-1.794.7,0,.46.269.7,1.1.7a8.246,8.246,0,0,1,3.254.454c1.472.7,2.136,2.346,2.3,5.99l.238,31.686c-1.166-1.232-35.279-39.408-36.288-40.176a1.559,1.559,0,0,0-2.638,1.152l-.67,20.575-.942,26.918c-.073,6.6-.7,9.617-3.1,9.617s-3.415-2.915-5.761-8.463C193.176,50,180.725,18.239,178.856,13.959c-.771-1.8-1.248-2.495-1.945-2.495-.777,0-1.253.855-2.178,3.111L155.195,63.467c-1.556,3.891-3.038,6.536-6.615,6.993a21.274,21.274,0,0,1-2.416.171c-.622,0-.936.154-.936.614,0,.628.471.784,1.48.784,4.05,0,8.33-.24,9.188-.24,2.411,0,5.754.24,8.249.24.852,0,1.32-.156,1.32-.784,0-.46-.238-.614-1.166-.614h-1.171c-2.408,0-3.106-1.012-3.106-2.422a15,15,0,0,1,1.166-4.742l4.2-11.129c.154-.474.314-.628.7-.628H183.45a.751.751,0,0,1,.776.541l6.228,16.3a1.443,1.443,0,0,1-.821,1.906c-.785.087-1.091.235-1.091.7,0,.544.934.544,2.335.626,3.473.084,6.806.084,9.57.072h0c.283.012.471.012.507.012,1.657,0,3.322-.02,4.754-.051h0c.721,0,1.3-.009,1.777-.033,1.118-.031,1.931-.042,2.211-.042,1.455,0,4.533.232,9.525.232,1.079,0,1.768-.157,1.768-.773,0-.46-.457-.617-1.306-.617a12.3,12.3,0,0,1-4-.541c-1.536-.547-2.528-2.554-2.691-8.577l-.286-15.212-.241-15.134c1.239,1.46,32.064,34.962,36.412,39.6.757.847,1.587,1.7,2.349,1.7.617,0,.9-.7.9-2.4l.275-17.864.53-31.691c.16-3.639.815-5.3,2.3-5.987a8.119,8.119,0,0,1,3.246-.46c.833,0,1.1-.238,1.1-.7,0-.614-.754-.7-1.8-.7"/></svg>