<svg id="Layer_1" data-name="Layer 1" xmlns="http://www.w3.org/2000/svg" viewBox="0 0 190.05 81.946"><defs><style>.cls-1{fill:#025ea3;}.cls-2{fill:#f1a535;}</style></defs><title>verified by visa</title><path class="cls-1" d="M76.859,43.735,67.334,69.423,66.318,64.2c-2.372-6.4-7.508-13.113-13.489-15.835l8.715,32.984,10.3,0L87.163,43.735Z"/><polygon class="cls-1" points="85.024 81.39 91.113 43.699 100.845 43.699 94.752 81.39 85.024 81.39 85.024 81.39"/><path class="cls-1" d="M130.056,44.629a24.022,24.022,0,0,0-8.721-1.587c-9.627,0-16.391,5.117-16.449,12.436-.062,5.421,4.836,8.445,8.518,10.246,3.8,1.843,5.069,3.026,5.058,4.675-.037,2.525-3.04,3.676-5.831,3.676a19.507,19.507,0,0,1-9.152-1.97l-1.264-.6-1.362,8.435A29.473,29.473,0,0,0,111.7,81.946c10.217,0,16.863-5.059,16.943-12.871.041-4.3-2.559-7.555-8.179-10.242-3.393-1.746-5.49-2.9-5.459-4.676,0-1.563,1.76-3.24,5.576-3.24a17.02,17.02,0,0,1,7.282,1.449l.868.433,1.324-8.17Z"/><path class="cls-1" d="M155.015,43.738H147.5c-2.331,0-4.077.664-5.107,3.128L127.943,81.4h10.221s1.672-4.648,2.05-5.667c1.114,0,11.042.023,12.459.023.3,1.314,1.185,5.644,1.185,5.644h9.037l-7.88-37.663Zm-12,24.287c.807-2.163,3.877-10.535,3.877-10.535-.06.1.8-2.18,1.294-3.591l.649,3.249s1.869,8.994,2.26,10.877Z"/><path class="cls-2" d="M58.5,43.717H42.8l-.092.648c12.2,3.121,20.255,10.785,23.606,19.849L62.907,46.892c-.586-2.383-2.294-3.091-4.409-3.175Z"/><polygon class="cls-1" points="13.364 34.609 7.158 34.609 0 2.339 6.859 1.193 11.756 26.446 24.233 1.527 30.82 1.527 13.364 34.609 13.364 34.609"/><path class="cls-1" d="M45.637,24.06h-14.8c-.4,4.487,1.681,6.445,5.214,6.445,2.96,0,5.563-1.1,8.366-2.865L44.4,32.126a17.841,17.841,0,0,1-9.648,2.817c-6.444,0-10.7-3.676-9.421-11.983,1.153-7.495,6.339-12.029,12.354-12.029,6.922,0,9.224,5.2,8.218,11.743-.073.477-.21,1.05-.261,1.384Zm-8.71-9.165c-2.292,0-4.432,1.813-5.443,5.585h9.165c.169-3.581-.953-5.585-3.722-5.585Z"/><path class="cls-1" d="M55.283,21.243,53.248,34.466H47.519l3.549-23.058h4.869l0,4.631c1.939-2.674,4.576-4.917,8.186-5.108l.033,5.68a12.723,12.723,0,0,0-8.876,4.631Z"/><path class="cls-1" d="M64.084,34.466l3.549-23.058h5.728L69.812,34.466ZM71.14,7.542A2.738,2.738,0,0,1,68.2,4.3,4,4,0,0,1,72.153.955,2.768,2.768,0,0,1,75.029,4.3,3.925,3.925,0,0,1,71.14,7.542Z"/><path class="cls-1" d="M89.225,5.108A3.083,3.083,0,0,0,85.769,8.02l-.521,3.389h4.391l0,4.678H84.528L81.7,34.466H76.018l2.829-18.379H75.505l.72-4.678h3.342l.61-3.962C80.963,2.339,84.5.43,89.228.43a13.407,13.407,0,0,1,2.311.191L91.583,5.3a14.5,14.5,0,0,0-2.357-.191Z"/><path class="cls-1" d="M89.288,34.466l3.549-23.058h5.729L95.016,34.466ZM96.344,7.542A2.738,2.738,0,0,1,93.407,4.3,4,4,0,0,1,97.358.955,2.768,2.768,0,0,1,100.233,4.3a3.926,3.926,0,0,1-3.889,3.246Z"/><path class="cls-1" d="M120.774,24.06h-14.8c-.4,4.487,1.681,6.445,5.214,6.445,2.96,0,5.564-1.1,8.366-2.865l-.023,4.487a17.841,17.841,0,0,1-9.647,2.817c-6.444,0-10.7-3.676-9.421-11.983,1.153-7.495,6.339-12.029,12.353-12.029,6.922,0,9.225,5.2,8.218,11.743-.073.477-.21,1.05-.261,1.384Zm-8.71-9.165c-2.292,0-4.433,1.813-5.442,5.585h9.165c.169-3.581-.954-5.585-3.723-5.585Z"/><path class="cls-1" d="M137.742,34.466l.015-3.2a10.752,10.752,0,0,1-7.631,3.676c-4.822,0-8.137-3.581-6.939-11.362,1.322-8.592,6.636-12.411,11.982-12.411a15.081,15.081,0,0,1,5.215.859L142.1.906,147.964,0l-5.3,34.466Zm1.914-17.71a8.411,8.411,0,0,0-4.333-1c-3.008,0-5.578,2.435-6.356,7.5-.69,4.487.9,6.587,3.426,6.587,2.1,0,3.914-1.24,5.735-3.15l1.528-9.929Z"/><path class="cls-1" d="M160.208,34.684a20.448,20.448,0,0,1-6.98-1.157L157,9.046l4.444-.687-1.63,10.595a8.108,8.108,0,0,1,5.31-2.314c3.689,0,6.158,2.749,5.257,8.606-.99,6.436-4.961,9.438-10.168,9.438Zm3.2-14.212a6.394,6.394,0,0,0-4.184,2.279l-1.219,7.918a6.414,6.414,0,0,0,2.676.47c2.748,0,4.668-1.663,5.28-5.641.517-3.363-.6-5.027-2.554-5.027Z"/><path class="cls-1" d="M180.6,35.406c-2.217,4.3-4.411,5.641-7.774,5.641a5.318,5.318,0,0,1-1.562-.181l-.028-3.58a7.459,7.459,0,0,0,1.986.253,3.451,3.451,0,0,0,3.1-1.844l.575-1.157-3.679-17.212,4.609-.578,2.136,12.438L185.746,17h4.3L180.6,35.406Z"/></svg>